<svg xmlns="http://www.w3.org/2000/svg" viewBox="0 0 1024 1024"><defs><style>.cls-1,.cls-10,.cls-11,.cls-2,.cls-8{fill:#fff;}.cls-1,.cls-14{stroke:#752745;}.cls-1,.cls-10,.cls-13,.cls-14,.cls-5,.cls-7,.cls-8,.cls-9{stroke-miterlimit:10;}.cls-1,.cls-10,.cls-11,.cls-12,.cls-14,.cls-5,.cls-7,.cls-8,.cls-9{stroke-width:25.72px;}.cls-3{fill:#a65e4b;}.cls-4{fill:#181818;opacity:0.1;}.cls-12,.cls-13,.cls-14,.cls-5,.cls-7,.cls-9{fill:none;}.cls-10,.cls-11,.cls-12,.cls-5,.cls-8,.cls-9{stroke:#752d45;}.cls-10,.cls-11,.cls-12,.cls-13,.cls-5{stroke-linecap:round;}.cls-6{fill:#6db1cc;}.cls-7{stroke:#3d6082;}.cls-11,.cls-12{stroke-linejoin:round;}.cls-13{stroke:#bec776;stroke-width:19.29px;}</style></defs><path class="cls-1" d="M642.27,386.57c112.3,50.13,190.58,162.78,190.58,293.72A321.57,321.57,0,0,1,633.91,977.57q-11,4.57-22.44,8.29a322.72,322.72,0,0,1-200.22,0q-10.86-3.51-21.35-7.84a8,8,0,0,1-1.06-.45A300.38,300.38,0,0,1,356.34,962,321.52,321.52,0,0,1,189.87,680.29c0-130.94,78.28-243.59,190.58-293.72"/><polygon class="cls-2" points="409.32 386.57 366.25 865.71 514.58 921.26 661.57 869.65 608.6 386.58 409.32 386.57"/><polygon class="cls-3" points="393.88 549.72 618.34 475.43 624.31 549.52 387.36 627.94 393.88 549.72"/><polygon class="cls-3" points="379.41 731.09 635.58 648.73 642.98 718.68 373.08 808.94 379.41 731.09"/><path class="cls-4" d="M546.41,386.58l51.67,514.66s66-10.33,66-11.55-58.82-503.12-58.82-503.12Z"/><polygon class="cls-5" points="409.32 386.57 366.25 865.71 514.58 921.26 661.57 869.65 608.6 386.58 409.32 386.57"/><path class="cls-6" d="M734.11,840.79c-33,0-51.28,34.53-101.74,34.53-43.93,0-72.64-33-117.8-33-45.79,0-73.19,31.54-112.52,31.54-29,0-80.59-30.9-112.52-30.9-21,0-32.73,7.23-47.26,13.31A322.48,322.48,0,0,0,356.34,962c13,7.63,19.56,10.16,29.92,14.91.32.15,5.27,2.06,5.62,2.12,7.44,3,12.13,4.51,19.37,6.85a322.72,322.72,0,0,0,200.22,0q11.43-3.71,22.44-8.29A322.08,322.08,0,0,0,780.45,856.24C769.14,849,759.17,840.79,734.11,840.79Z"/><path class="cls-7" d="M780.45,856.24c-11.31-7.29-21.28-15.45-46.34-15.45-33,0-51.28,34.53-101.74,34.53-43.93,0-72.64-33-117.8-33-45.79,0-73.19,31.54-112.52,31.54-29,0-80.59-30.9-112.52-30.9-21,0-32.73,7.23-47.26,13.31"/><path class="cls-8" d="M391.77,189.65a122.81,122.81,0,0,1,245.61,0Z"/><path class="cls-4" d="M637.38,189.66H570A198,198,0,0,0,528.11,67.59,122.78,122.78,0,0,1,637.38,189.66Z"/><path class="cls-9" d="M391.77,189.65a122.81,122.81,0,0,1,245.61,0Z"/><line class="cls-5" x1="366.64" y1="189.65" x2="655.99" y2="189.65"/><line class="cls-5" x1="514.57" y1="22.22" x2="514.57" y2="66.85"/><rect class="cls-10" x="409.32" y="189.65" width="205.36" height="130.28"/><line class="cls-5" x1="477.57" y1="189.65" x2="477.57" y2="319.94"/><line class="cls-5" x1="546.43" y1="189.65" x2="546.43" y2="319.94"/><rect class="cls-11" x="380.44" y="319.94" width="263.14" height="66.65"/><polygon class="cls-4" points="583.51 319.94 594.15 386.58 643.58 386.58 643.58 319.94 583.51 319.94"/><rect class="cls-12" x="380.44" y="319.94" width="263.14" height="66.65"/><line class="cls-13" x1="689.82" y1="215.06" x2="850.92" y2="215.06"/><line class="cls-13" x1="695.28" y1="294.53" x2="856.38" y2="294.53"/><line class="cls-13" x1="662.9" y1="255.05" x2="781.88" y2="255.05"/><line class="cls-13" x1="334.18" y1="294.53" x2="173.08" y2="294.53"/><line class="cls-13" x1="328.72" y1="215.06" x2="167.62" y2="215.06"/><line class="cls-13" x1="361.1" y1="254.54" x2="242.12" y2="254.54"/><path class="cls-14" d="M642.27,386.57c112.3,50.13,190.58,162.78,190.58,293.72A321.57,321.57,0,0,1,633.91,977.57q-11,4.57-22.44,8.29a322.72,322.72,0,0,1-200.22,0q-10.86-3.51-21.35-7.84a8,8,0,0,1-1.06-.45A300.38,300.38,0,0,1,356.34,962,321.52,321.52,0,0,1,189.87,680.29c0-130.94,78.28-243.59,190.58-293.72"/></svg>